<?xml version="1.0" encoding="UTF-8" standalone="no"?>
<!-- Created with Inkscape (http://www.inkscape.org/) -->

<svg
   width="512"
   height="512"
   viewBox="0 0 512 512"
   version="1.1"
   id="svg1"
   xml:space="preserve"
   inkscape:version="1.3 (0e150ed6c4, 2023-07-21)"
   sodipodi:docname="sierpenski.svg"
   xmlns:inkscape="http://www.inkscape.org/namespaces/inkscape"
   xmlns:sodipodi="http://sodipodi.sourceforge.net/DTD/sodipodi-0.dtd"
   xmlns="http://www.w3.org/2000/svg"
   xmlns:svg="http://www.w3.org/2000/svg"
   xmlns:rdf="http://www.w3.org/1999/02/22-rdf-syntax-ns#"
   xmlns:cc="http://creativecommons.org/ns#"
   xmlns:dc="http://purl.org/dc/elements/1.1/"><title
     id="title1">Save</title><sodipodi:namedview
     id="namedview1"
     pagecolor="#505050"
     bordercolor="#ffffff"
     borderopacity="1"
     inkscape:showpageshadow="0"
     inkscape:pageopacity="0"
     inkscape:pagecheckerboard="1"
     inkscape:deskcolor="#505050"
     inkscape:document-units="px"
     showgrid="true"
     inkscape:zoom="0.69219276"
     inkscape:cx="665.27711"
     inkscape:cy="494.80437"
     inkscape:window-width="1920"
     inkscape:window-height="991"
     inkscape:window-x="-9"
     inkscape:window-y="-9"
     inkscape:window-maximized="1"
     inkscape:current-layer="layer1"><inkscape:grid
       id="grid1"
       units="px"
       originx="0"
       originy="0"
       spacingx="1"
       spacingy="1"
       empcolor="#0099e5"
       empopacity="0.30196078"
       color="#0099e5"
       opacity="0.14901961"
       empspacing="32"
       dotted="false"
       gridanglex="30"
       gridanglez="30"
       visible="true" /></sodipodi:namedview><defs
     id="defs1" /><g
     inkscape:label="Layer 1"
     inkscape:groupmode="layer"
     id="layer1"><path
       id="path1-7"
       style="fill:#000000;stroke-width:7.55907;stroke-linejoin:round"
       d="m 64,32 c 0,0 -32,2.88e-4 -32,32 v 384 c 0,0 2.88e-4,32 32,32 h 384 c 0,0 32,-3e-4 32,-32 V 64 c 0,0 -3e-4,-32 -32,-32 z M 85.33333,81.77778 H 128 c 3.55555,0 3.55556,3.55555 3.55556,3.55555 V 128 c 0,3.55555 -3.55556,3.55556 -3.55556,3.55556 H 85.33333 C 81.77779,131.55556 81.77778,128 81.77778,128 V 85.33333 c 0,-3.55554 3.55555,-3.55555 3.55555,-3.55555 z m 149.33334,0 h 42.66666 c 3.55556,0 3.55556,3.55555 3.55556,3.55555 V 128 c 0,3.55554 -3.55556,3.55556 -3.55556,3.55556 h -42.66666 c -3.55556,0 -3.55556,-3.55556 -3.55556,-3.55556 V 85.33333 c 0,-3.55554 3.55556,-3.55555 3.55556,-3.55555 z m 149.33333,0 h 42.66667 c 3.55555,0 3.55555,3.55555 3.55555,3.55555 V 128 c 0,3.55554 -3.55555,3.55556 -3.55555,3.55556 H 384 c -3.55556,0 -3.55556,-3.55556 -3.55556,-3.55556 V 85.33333 c 0,-3.55554 3.55556,-3.55555 3.55556,-3.55555 z m -192,99.55555 h 128 c 10.66657,0 10.66667,10.66667 10.66667,10.66667 V 320 C 330.66667,330.66657 320,330.66667 320,330.66667 H 192 C 181.33343,330.66667 181.33333,320 181.33333,320 V 192 C 181.33333,181.33343 192,181.33333 192,181.33333 Z M 85.33333,231.11111 H 128 c 3.55555,0 3.55556,3.55556 3.55556,3.55556 v 42.66666 c 0,3.55556 -3.55556,3.55556 -3.55556,3.55556 H 85.33333 c -3.55555,0 -3.55555,-3.55556 -3.55555,-3.55556 v -42.66666 c 0,-3.55556 3.55555,-3.55556 3.55555,-3.55556 z m 298.66667,0 h 42.66667 c 3.55555,0 3.55555,3.55556 3.55555,3.55556 v 42.66666 c 0,3.55556 -3.55555,3.55556 -3.55555,3.55556 H 384 c -3.55556,0 -3.55556,-3.55556 -3.55556,-3.55556 v -42.66666 c 0,-3.55556 3.55556,-3.55556 3.55556,-3.55556 z M 85.33333,380.44444 H 128 c 3.55555,0 3.55556,3.55556 3.55556,3.55556 v 42.66667 c 0,3.55555 -3.55556,3.55555 -3.55556,3.55555 H 85.33333 c -3.55555,0 -3.55555,-3.55555 -3.55555,-3.55555 V 384 c 0,-3.55556 3.55555,-3.55556 3.55555,-3.55556 z m 149.33334,0 h 42.66666 c 3.55556,0 3.55556,3.55556 3.55556,3.55556 v 42.66667 c 0,3.55555 -3.55556,3.55555 -3.55556,3.55555 h -42.66666 c -3.55556,0 -3.55556,-3.55555 -3.55556,-3.55555 V 384 c 0,-3.55556 3.55556,-3.55556 3.55556,-3.55556 z m 149.33333,0 h 42.66667 c 3.55555,0 3.55555,3.55556 3.55555,3.55556 v 42.66667 c 0,3.55555 -3.55555,3.55555 -3.55555,3.55555 H 384 c -3.55556,0 -3.55556,-3.55555 -3.55556,-3.55555 V 384 c 0,-3.55556 3.55556,-3.55556 3.55556,-3.55556 z" /></g><metadata
     id="metadata1"><rdf:RDF><cc:Work
         rdf:about=""><dc:title>Save</dc:title></cc:Work></rdf:RDF></metadata></svg>
